<?xml version="1.0" encoding="UTF-8"?>
<svg id="_图层_1" data-name="图层 1" xmlns="http://www.w3.org/2000/svg" viewBox="0 0 128 128">
  <defs>
    <style>
      .cls-1 {
        fill: #fff;
      }
    </style>
  </defs>
  <path class="cls-1" d="M39,29c0-8.28,6.72-15,15-15s15,6.72,15,15c0,1.75-.3,3.44-.85,5h20.85c2.76,0,5,2.24,5,5v20.85c1.56-.55,3.25-.85,5-.85,8.28,0,15,6.72,15,15s-6.72,15-15,15c-1.75,0-3.44-.3-5-.85v20.85c0,2.76-2.24,5-5,5H19c-2.76,0-5-2.24-5-5V39c0-2.76,2.24-5,5-5h20.85c-.55-1.56-.85-3.25-.85-5Z"/>
</svg>